<svg xmlns="http://www.w3.org/2000/svg" viewBox="0 0 144 40.7"><defs><style>.cls-1{fill:#0168ae;}</style></defs><title>Asset 1</title><g id="Layer_2" data-name="Layer 2"><g id="Layer_1-2" data-name="Layer 1"><path class="cls-1" d="M10.6,29.1c-3.6,0-6.4-1-8-2.9S.1,21.4.1,17.5c0-1.3.1-2.2.1-7.3C.2,3.3,0,.4,0,.4H4.1S4,2.2,3.9,3.2s-.1,2-.1,3.2-.1,2.4-.1,3.8-.1,2.8-.1,4.3.1,1.9.1,2.8a24.6,24.6,0,0,0,.2,2.8,19.7,19.7,0,0,0,.7,2.6,4.6,4.6,0,0,0,1.3,2A6,6,0,0,0,8,26.1a8.1,8.1,0,0,0,3.3.6,6.3,6.3,0,0,0,3.2-.7,8,8,0,0,0,2.1-1.5,10.1,10.1,0,0,0,1.2-2.3,8.9,8.9,0,0,0,.7-2.8,28.5,28.5,0,0,0,.3-2.9V5.1c-.1-2-.2-4.7-.2-4.7h3.2s-.2,2.5-.2,3.8-.2,2.7-.2,4.1-.1,3-.2,4.6,0,3-.1,4.5a15.3,15.3,0,0,1-.7,4.9A11.2,11.2,0,0,1,18.3,26,7.9,7.9,0,0,1,15,28.3a11.5,11.5,0,0,1-4.4.8"/><path class="cls-1" d="M28.4,29.1a9.4,9.4,0,0,1-3.7-.7,9.1,9.1,0,0,1-2.4-1.6l-.5-.4,2-3.7v.2a10,10,0,0,0,.8,1.4,4.5,4.5,0,0,0,1.1,1.3,3.8,3.8,0,0,0,1.5.9,6.5,6.5,0,0,0,2,.4,4.6,4.6,0,0,0,2-.5,5.3,5.3,0,0,0,1.5-1.1,5.6,5.6,0,0,0,.9-1.7,7.8,7.8,0,0,0,.4-2.2,4.6,4.6,0,0,0-.8-2.7,5.5,5.5,0,0,0-2-1.7,16.9,16.9,0,0,0-2.7-1.3,11.7,11.7,0,0,1-2.7-1.5,10,10,0,0,1-2.2-2.4,7.5,7.5,0,0,1-.9-3.9,10.2,10.2,0,0,1,.5-3.2A7.4,7.4,0,0,1,25,2.2,8.2,8.2,0,0,1,27.5.6,9.3,9.3,0,0,1,30.9,0,9.6,9.6,0,0,1,34,.5,6.9,6.9,0,0,1,36.4,2l.4.4L34.5,5.9V5.6L34,4.5a4.2,4.2,0,0,0-.8-1.2l-1.1-.8a2.7,2.7,0,0,0-1.6-.4,3.3,3.3,0,0,0-1.7.4,3,3,0,0,0-1.3.9,3.8,3.8,0,0,0-.9,1.5,3.7,3.7,0,0,0-.4,1.8A4.7,4.7,0,0,0,27,9.5a5.5,5.5,0,0,0,2,1.7,16.9,16.9,0,0,0,2.7,1.3A14.3,14.3,0,0,1,34.4,14a6.6,6.6,0,0,1,2.2,2.2,6.8,6.8,0,0,1,.9,3.7,11.3,11.3,0,0,1-.6,3.6,7.9,7.9,0,0,1-1.8,2.9,7.5,7.5,0,0,1-2.9,2,11.2,11.2,0,0,1-3.8.7"/><path class="cls-1" d="M38.9,28.7s.3-4,.3-14.2-.3-14-.3-14h3.8s-.4,3.8-.4,14,.4,14.2.4,14.2Z"/><rect class="cls-1" x="0.8" y="32.6" width="143.2" height="0.56"/><rect class="cls-1" x="1.8" y="36.5" width="0.4" height="4.14"/><polygon class="cls-1" points="11.4 36.5 11.8 36.5 14.1 40.1 14.1 40.1 14.1 36.5 14.5 36.5 14.5 40.6 14 40.6 11.8 37.1 11.8 37.1 11.8 40.6 11.4 40.6 11.4 36.5"/><polygon class="cls-1" points="24.6 36.8 23.2 36.8 23.2 36.5 26.2 36.5 26.2 36.8 24.9 36.8 24.9 40.6 24.6 40.6 24.6 36.8"/><polygon class="cls-1" points="35 40.6 35 36.5 37.5 36.5 37.5 36.8 35.4 36.8 35.4 38.3 37.4 38.3 37.4 38.7 35.4 38.7 35.4 40.3 37.6 40.3 37.6 40.6 35 40.6"/><path class="cls-1" d="M47,40.6h-.3V36.5H48a1.6,1.6,0,0,1,1,.2,1,1,0,0,1,.4.9c0,.4-.3.7-.8.9h0a.8.8,0,0,1,.7.9,5.5,5.5,0,0,0,.2,1.2h-.4a2.2,2.2,0,0,1-.1-.8c-.1-1-.2-1.1-.9-1.1H47Zm.8-2.3c.6,0,1.2,0,1.2-.7s-.7-.8-1.1-.8H47v1.5Z"/><polygon class="cls-1" points="58.6 36.5 59 36.5 61.2 40.1 61.3 40.1 61.3 36.5 61.6 36.5 61.6 40.6 61.2 40.6 58.9 37.1 58.9 37.1 58.9 40.6 58.6 40.6 58.6 36.5"/><path class="cls-1" d="M70.3,40.6,72,36.5h.4L74,40.6h-.4l-.4-1.1H71.1l-.4,1.1Zm2.8-1.4-.9-2.4-.9,2.4Z"/><polygon class="cls-1" points="83.2 36.8 81.9 36.8 81.9 36.5 84.9 36.5 84.9 36.8 83.6 36.8 83.6 40.6 83.2 40.6 83.2 36.8"/><rect class="cls-1" x="93.7" y="36.5" width="0.4" height="4.14"/><path class="cls-1" d="M105,40.7c-1.2,0-1.8-.9-1.8-2.1s.6-2.2,1.8-2.2,1.9.9,1.9,2.2a1.9,1.9,0,0,1-1.9,2.1m0-.3c1.1,0,1.5-.9,1.5-1.8s-.4-1.8-1.5-1.8-1.4.9-1.4,1.8.4,1.8,1.4,1.8"/><polygon class="cls-1" points="115.9 36.5 116.3 36.5 118.6 40.1 118.6 40.1 118.6 36.5 119 36.5 119 40.6 118.5 40.6 116.3 37.1 116.3 37.1 116.3 40.6 115.9 40.6 115.9 36.5"/><path class="cls-1" d="M127.7,40.6l1.6-4.1h.5l1.6,4.1H131l-.4-1.1h-2.1l-.4,1.1Zm2.7-1.4-.9-2.4-.9,2.4Z"/><polygon class="cls-1" points="140.1 40.6 140.1 36.5 140.5 36.5 140.5 40.3 142.6 40.3 142.6 40.6 140.1 40.6"/><path class="cls-1" d="M57.2,8.6a3.2,3.2,0,1,1-6.3,0V.6h-2V8.2a5.3,5.3,0,0,0,1.4,3.9,4.9,4.9,0,0,0,3.8,1.4,4.8,4.8,0,0,0,3.7-1.4,4.9,4.9,0,0,0,1.4-3.9V.6h-2Z"/><path class="cls-1" d="M65.9,4.1a3.2,3.2,0,0,0-2.6,1.3v-1H61.5v8.8h1.9V8.4c0-1.6.4-2,.6-2.2h0a2.1,2.1,0,0,1,1.5-.6h0c1.3,0,1.9.6,1.9,2.1v5.5h1.9V7.1C69.3,4.3,66.4,4.1,65.9,4.1Z"/><path class="cls-1" d="M77.8,5.5V5.3a3,3,0,0,0-2.4-1.2c-2.5,0-4.1,1.8-4.1,4.6s1.3,4.4,3.8,4.4a3.7,3.7,0,0,0,2.8-1.3c-.1,1.8-.2,3.5-2.3,3.5s-1.9-.5-1.9-1.5H71.7c0,1.8,1.1,2.9,3.3,2.9s4.6-1.4,4.6-4.6V6c0-.5.1-1,.1-1.5H77.8Zm-2.4,0c2.1,0,2.4,2.2,2.4,3.1s-.3,3.1-2.4,3.1-2.3-1.6-2.3-3.1S73.7,5.5,75.4,5.5Z"/><path class="cls-1" d="M85.5,4.1c-3,0-4.1,2.5-4.1,4.8s1.4,4.6,4,4.6,3.6-1.1,3.9-3.1H87.4a1.8,1.8,0,0,1-2,1.7,1.7,1.7,0,0,1-1.4-.6,2.8,2.8,0,0,1-.7-2.3h6.1V8.3C89.4,5.7,88,4.2,85.5,4.1Zm2,3.8H83.3a2.2,2.2,0,0,1,2.1-2.4,2,2,0,0,1,1.5.6A2.4,2.4,0,0,1,87.5,7.9Z"/><path class="cls-1" d="M96,4.3h-.4a2.7,2.7,0,0,0-2.4,1.4V4.4H91.3v8.8h1.9V8.8c0-1.8.4-2.8,2.3-2.9h.8V4.3H96Z"/><path class="cls-1" d="M102.4,4.1a2.9,2.9,0,0,0-2.6,1.2V.6H97.9v12a.7.7,0,0,1-.1.5h1.9V12.1a3.3,3.3,0,0,0,2.9,1.4c2.7,0,3.7-2.5,3.7-4.7S105.3,4.1,102.4,4.1Zm-.3,1.4c2,0,2.4,1.8,2.4,3.3s-.2,3.3-2.4,3.3-2.3-1.8-2.3-3.3S99.9,5.5,102.1,5.5Z"/><path class="cls-1" d="M112,4.1c-2.8,0-4.4,1.8-4.4,4.7s1.6,4.7,4.4,4.7,4.4-1.8,4.4-4.7S114.8,4.1,112,4.1Zm0,8c-2,0-2.5-1.8-2.5-3.3s.5-3.3,2.5-3.3,2.5,1.8,2.5,3.3S114.1,12.1,112,12.1Z"/><path class="cls-1" d="M121.8,4.1c-3,0-4.1,2.5-4.1,4.8s1.4,4.6,4,4.6,3.7-1.1,3.9-3.1h-1.9a1.8,1.8,0,0,1-2,1.7,1.7,1.7,0,0,1-1.4-.6,3.2,3.2,0,0,1-.7-2.3h6.1V8.3C125.7,5.7,124.3,4.2,121.8,4.1Zm-2.2,3.8c.1-1.4.9-2.4,2.1-2.4a2,2,0,0,1,1.5.6,2.4,2.4,0,0,1,.6,1.8Z"/><path class="cls-1" d="M132.8,10.2c-.1,1.2-.7,1.9-1.7,1.9S129,11,129,8.8s.7-3.3,2.1-3.3,1.6.6,1.7,1.8h1.8a3.3,3.3,0,0,0-3.4-3.1c-3,0-4.1,2.5-4.1,4.8s1.4,4.6,4,4.6a3.5,3.5,0,0,0,3.6-3.3h-1.9Z"/><polygon class="cls-1" points="140 8.1 143.6 4.5 143.7 4.4 141.3 4.4 138.2 7.7 138.2 0.6 136.4 0.6 136.4 13.2 138.2 13.2 138.2 8.7 141.5 13.2 141.5 13.2 143.9 13.2 140 8.1"/><path class="cls-1" d="M50.3,25.2c0,1.5.9,2.1,2.3,2.1s2.6-.4,2.6-1.8-.8-1.5-1.7-1.7-4.6-.7-4.6-3.1,2.1-3.1,4-3.1,3.6.8,3.6,2.8H55c-.1-1.2-1.1-1.6-2.1-1.6s-2.5.4-2.5,1.7.9,1.2,1.8,1.5,4.5.6,4.5,3.3-2.1,3.2-4.2,3.2-3.8-.9-3.8-3.3Z"/><path class="cls-1" d="M65.1,24.7c0,2.2-1.2,3.8-3.6,3.8s-3.6-1.6-3.6-3.8,1.2-3.9,3.6-3.9,3.6,1.6,3.6,3.9m-3.6,2.8c1.7,0,2.2-1.3,2.2-2.8s-.5-2.9-2.2-2.9-2.2,1.3-2.2,2.9.6,2.8,2.2,2.8"/><path class="cls-1" d="M67.1,28.3V22H65.7V21h1.4V19.6a2,2,0,0,1,2.3-2h1v1.2h-.7c-.8,0-1.2.2-1.2,1V21h1.7v1H68.5v6.3Z"/><path class="cls-1" d="M72.3,21V19.4l1.4-.4v2h1.7v1H73.7v4.7a.8.8,0,0,0,.9.8h.7v1H73.4a1.8,1.8,0,0,1-.8-.5,2,2,0,0,1-.3-1.4V22H71V21Z"/><polygon class="cls-1" points="88.4 21 85.9 28.3 84.3 28.3 82.6 22.3 82.5 22.3 80.7 28.3 79 28.3 76.6 21 78.1 21 79.9 26.9 79.9 26.9 81.7 21 83.5 21 85.2 26.8 85.2 26.8 87 21 88.4 21"/><path class="cls-1" d="M93.7,23.8c0-1.3-.1-2-1.5-2A1.3,1.3,0,0,0,90.8,23H89.3c.1-1.6,1.4-2.2,2.8-2.2s3,.4,3,2.5v3.5a9.2,9.2,0,0,0,.1,1.5h-1c-.1,0-.4.1-.4-.1v-1h-.1a2.2,2.2,0,0,1-2.2,1.3c-1.3,0-2.6-.6-2.6-2.1s1.8-2.6,3.6-2.6Zm-1.4,1c-.8,0-1.9.3-1.9,1.4a1.2,1.2,0,0,0,1.4,1.3c1.6,0,1.9-1.4,1.9-2.7Z"/><path class="cls-1" d="M98.5,28.3H97.1V21h1.4v1.4h0a2.2,2.2,0,0,1,2.2-1.5h.5v1.3h-.6c-1.8,0-2.1.9-2.1,2.5Z"/><path class="cls-1" d="M103.5,24.9c-.1,1.3.4,2.6,1.8,2.6a1.6,1.6,0,0,0,1.8-1.5h1.4c-.2,1.7-1.5,2.5-3.2,2.5s-3.3-1.6-3.3-3.8,1.1-3.9,3.4-3.9,3.2,1.4,3.2,3.4v.7Zm3.7-.9c0-1.3-.5-2.2-1.9-2.2a2,2,0,0,0-1.8,2.2Z"/><path class="cls-1" d="M17.5,19c.1-.2,0-.6-.3-.6a.5.5,0,0,0-.5.1h-.2a.4.4,0,0,0-.1-.3c-.5-.5-.8-.2-.8-.2a6.9,6.9,0,0,1-1.8-2.5,19.5,19.5,0,0,0-.9-2c-.1-.3.2-.4.3-.1a6.7,6.7,0,0,0,.7,2.1c.6,1.1,1.6,2.1,2.2,2.1a1.1,1.1,0,0,0,1-.5c-.7.1-.9-.4-1.3-1.3l-.7-2.1a4.8,4.8,0,0,0-.8-1.2c-.2-.2,0-.4.1-.1A5.9,5.9,0,0,0,15.6,14c.5.7.9.9,1.2.9s.8-.4.8-1.1a.8.8,0,0,1-.5.2c-.3,0-.6-.5-.9-1a5.4,5.4,0,0,0-.7-1.2c-.3-.3-.6-.5-.6-.6h.2c.1,0,.2.3.4.6a1.8,1.8,0,0,0,1.4.8c.7,0,.8-.8.8-.8s-1-.7-1.6-1.4l-.7-.7c-.1-.1-.1-.2.1-.2s.5.8,1.1.8,1.1-.4,1.1-.9-.9-.3-1.2-.7a1.6,1.6,0,0,0-.8-.6c-.2,0-.2-.2,0-.2s.6.5,1.1.5a1.3,1.3,0,0,0,1-.4c-.7,0-.9-1.4-1.5-1.4s-.6.2-.6-.1h.2c.1,0,.3.2.6.2a1.2,1.2,0,0,0,1.2-1.3c0-.8-.1-.9-.2-1s-.8.7-1.1.7-.2.2-.3.3-.3,0-.3-.2.5-.3.5-1.1a1.5,1.5,0,0,0-.8-1.3s.1,1.9-.6,1.9-.1-.2-.3-.2-.5.4-.5.8a.8.8,0,0,0,.2.5c.1.2-.1.2-.1.6s.4.3.2.9-.8.4-1.2.8-.1,1-.5,1h0a.2.2,0,0,1-.2-.2c0-.2.6-.5.5-1.1s-.4.3-.6.1.4-.2.5-.7-.7.1-.6-.8h.5l.4.5c0,.1.3-.2.3-.5a1.1,1.1,0,0,0-.3-.7,1,1,0,0,0,.3-.6c0-.4-.3-.8-.3-.5s-.5.2-.5.2.1-.4-.4-.5h.4c.1,0,.3-.1.3-.4V3c0-.1-.1-.3-.2-.3h-.7c-.1,0-.2.2-.2.3v.3h-.3V2.9c0-.1-.2-.2-.4-.2s-.6.1-.6.3v.2h-.2V2.9c0-.1-.1-.1-.2-.1H9.6c-.2,0-.3,0-.3.2v.6a.3.3,0,0,0,.3.3H10v.2s-.4.1-.4.3H8.9c-.2.2-.4.6-.1.8s.1-.2.7,0-.3.5-.6.5-.3-.2-.3-.2-.5.8.3.8S10,5.5,10,5.5s.3.6-.3.6-.1.5.8.4,0,.3-.1.4-.4-.1-.5-.2.4.8.1.9a.5.5,0,0,1-.5-.1c-.1.8.4.9.5,1.1s-.1.2-.2.3H9.6c-.3,0-.1-.6-.5-1S8.1,8,8,7.1s.2-.5.2-.9-.3-.4-.2-.6a.7.7,0,0,0,.3-.5c0-.4-.2-.8-.5-.8s-.2.2-.4.2-.6-1.9-.6-1.9a1.5,1.5,0,0,0-.7,1.3c0,.8.4.9.4,1.1s-.1.2-.2.2,0-.3-.3-.3-.7.4-1.1-.7-.3.2-.3,1A1.3,1.3,0,0,0,5.9,6.5l.6-.2a.1.1,0,0,1,.1.1c0,.3-.2.1-.5.1S5.3,7.9,4.6,7.9a1.3,1.3,0,0,0,1,.4c.5,0,.8-.5,1-.5s.2.2.1.2a1.1,1.1,0,0,0-.8.6c-.3.4-.7.9-1.2.7a1,1,0,0,0,1.1.9c.6,0,1-.8,1.1-.8s.2.1.1.2a2.3,2.3,0,0,0-.8.7c-.5.7-.8,1.7-1.6,1.4s.2.8.9.8a1.6,1.6,0,0,0,1.3-.8c.3-.3.4-.6.5-.6h.1c0,.1-.2.3-.5.6A11.8,11.8,0,0,0,6.1,13c-.2.5-.5,1-.8,1l-.6-.2c.1.7.2,1.1.9,1.1s.7-.2,1.2-.9a7.6,7.6,0,0,0,1.1-1.6c.1-.3.3-.1.2.1a4.8,4.8,0,0,0-.8,1.2c-.3.6-.4,1.1-.8,2.1S6,17.2,5.3,17.1a.9.9,0,0,0,.9.5c.7,0,1.7-1,2.2-2.1a17.3,17.3,0,0,0,.8-2.1c.1-.3.4-.2.2.1s-.6,1.5-.9,2A5.6,5.6,0,0,1,6.8,18s-.3-.3-.8.2a.4.4,0,0,0-.1.3H5.6s-.1-.2-.4-.1-.4.4-.3.6-.4.5-.1.7.4.7.8.5.7,0,.6-.5l.2-.2s.2.3.3.3V20a.6.6,0,0,0-.3.6.7.7,0,0,0,.4.6c0,.1.1.2.1.3s-.2.3-.2.5a.7.7,0,0,0,.7.7h0c0,.1.1.1.1.2v.2a.7.7,0,0,0,.6.7h.6a.7.7,0,1,0,.7-.7H8.8a.7.7,0,0,0-.7-.7H8c0-.1.1-.2.1-.3a.9.9,0,0,0-.6-.7v-.2a.8.8,0,0,0,.2-.5.6.6,0,0,0-.3-.6v-.3a1,1,0,0,0-.1-.9.5.5,0,0,0,.6-.3c.2-.5.2-.8.6-1.1l2-1.3a2.3,2.3,0,0,1-.1.7.3.3,0,0,1-.5.1s-.2.4,0,.6l.4.4H9.9a.3.3,0,0,1-.3-.3.5.5,0,0,0-.3.5,1.6,1.6,0,0,0,.4,1.1.7.7,0,0,1-.4.2c-.4,0-.4-.8-.4-.8A1.1,1.1,0,0,0,8.5,20a1,1,0,0,0,.4,1.2s.2-.9.9-.8a1.9,1.9,0,0,0-.4.9,2.2,2.2,0,0,0,.1.6,1,1,0,0,1,1.1-.2v1.2l-.3.3c-.1.2.4.2.4.2s.2,1.1.5,1.1h0c.3,0,.5-1.1.5-1.1s.4,0,.4-.2l-.3-.3V21.7c.5-.3,1.1.2,1.1.2a2.2,2.2,0,0,0,.1-.6,1.9,1.9,0,0,0-.4-.9c.7-.1.9.8.9.8a1,1,0,0,0,.3-1.2,1,1,0,0,0-.3-1.3s0,.8-.4.8a.4.4,0,0,1-.4-.2,1.6,1.6,0,0,0,.4-1.1.5.5,0,0,0-.3-.5s-.1.3-.3.3h-.4c0-.2.2-.3.3-.4s.1-.6.1-.6-.4.3-.6-.1a2.3,2.3,0,0,1-.1-.7l2,1.3c.5.3.5.6.7,1.1a.5.5,0,0,0,.6.3.8.8,0,0,0-.1.9V20a.7.7,0,0,0-.4.6.5.5,0,0,0,.3.5v.2a.8.8,0,0,0-.5.7.4.4,0,0,0,.1.3h-.2a.7.7,0,0,0-.6.7H13a.7.7,0,1,0,.7.7.1.1,0,0,0,.1-.1h.4a.7.7,0,0,0,.7-.7v-.4h0a.7.7,0,0,0,.7-.7c0-.2-.1-.3-.2-.5v-.3a.6.6,0,0,0,.5-.6.7.7,0,0,0-.4-.6v-.2c.2,0,.3-.3.3-.3l.3.2c-.1.5.3.8.6.5s.9,0,.8-.5.1-.7-.1-.7M10.3,4.6H11a.7.7,0,0,1-.4.2.2.2,0,0,1-.3-.1"/></g></g></svg>